<?xml version="1.0" encoding="UTF-8" standalone="no"?>
<!-- Created with Inkscape (http://www.inkscape.org/) -->

<svg
   version="1.1"
   id="svg7950"
   xml:space="preserve"
   width="634.62439"
   height="98.048004"
   viewBox="0 0 634.62438 98.048004"
   sodipodi:docname="KNR_KNR_Rover_Team.svg"
   inkscape:version="0.92.4 (5da689c313, 2019-01-14)"
   inkscape:export-filename="KNR_KNR_Rover_Team.png"
   inkscape:export-xdpi="96"
   inkscape:export-ydpi="96"
   xmlns:inkscape="http://www.inkscape.org/namespaces/inkscape"
   xmlns:sodipodi="http://sodipodi.sourceforge.net/DTD/sodipodi-0.dtd"
   xmlns="http://www.w3.org/2000/svg"
   xmlns:svg="http://www.w3.org/2000/svg"
   xmlns:rdf="http://www.w3.org/1999/02/22-rdf-syntax-ns#"
   xmlns:cc="http://creativecommons.org/ns#"
   xmlns:dc="http://purl.org/dc/elements/1.1/"><metadata
     id="metadata7956"><rdf:RDF><cc:Work
         rdf:about=""><dc:format>image/svg+xml</dc:format><dc:type
           rdf:resource="http://purl.org/dc/dcmitype/StillImage" /><dc:title /></cc:Work></rdf:RDF></metadata><defs
     id="defs7954"><clipPath
       clipPathUnits="userSpaceOnUse"
       id="clipPath7966"><path
         d="M 0,595.276 H 841.89 V 0 H 0 Z"
         id="path7964"
         inkscape:connector-curvature="0" /></clipPath></defs><sodipodi:namedview
     pagecolor="#ffffff"
     bordercolor="#666666"
     borderopacity="1"
     objecttolerance="10"
     gridtolerance="10"
     guidetolerance="10"
     inkscape:pageopacity="0"
     inkscape:pageshadow="2"
     inkscape:window-width="1920"
     inkscape:window-height="1001"
     id="namedview7952"
     showgrid="false"
     inkscape:zoom="1.1893642"
     inkscape:cx="448.84897"
     inkscape:cy="382.56239"
     inkscape:window-x="-9"
     inkscape:window-y="-9"
     inkscape:window-maximized="1"
     inkscape:current-layer="g7958"
     inkscape:showpageshadow="2"
     inkscape:pagecheckerboard="0"
     inkscape:deskcolor="#d1d1d1" /><g
     id="g7958"
     inkscape:groupmode="layer"
     inkscape:label="KNR_znaki_projektow_propozycja"
     transform="matrix(1.3333333,0,0,-1.3333333,-243.94782,522.38611)"><g
       id="g7960"
       transform="translate(5.0447123,-0.08790318)"><g
         id="g7962"
         clip-path="url(#clipPath7966)"
         transform="translate(5.3600068)"><g
           id="g7058"
           transform="translate(-8.1038513,57.383602)"><g
             id="g7968"
             transform="translate(181.66,271.6809)"><path
               d="m 0,0 c 0,5.361 4.361,9.723 9.723,9.723 5.361,0 9.722,-4.362 9.722,-9.723 0,-5.361 -4.361,-9.723 -9.722,-9.723 C 4.361,-9.723 0,-5.361 0,0 m 19.264,4.869 c -0.281,0.548 -0.608,1.065 -0.975,1.553 l 14.112,9.197 -0.008,-0.038 1.187,-1.616 z m 12.102,6.505 3.791,2.409 2.993,-1.702 v 3.379 h 4.399 l 2.847,-1.657 V 11.88 l -0.583,-0.43 h -5.377 l -2.09,-1.179 h -2.783 z m 9.959,-1.651 c 5.362,0 9.723,-4.362 9.723,-9.723 0,-5.361 -4.361,-9.723 -9.723,-9.723 -5.361,0 -9.722,4.362 -9.722,9.723 0,5.361 4.361,9.723 9.722,9.723 m 9.716,-5.216 c -0.269,0.576 -0.583,1.126 -0.945,1.641 l 2.691,1.647 h 1.109 l 1.353,1.229 h 2.189 L 58.391,7.82 h 1.201 L 62.46,6.155 C 62.085,5.623 61.76,5.054 61.486,4.457 L 58.508,6.165 H 54.131 Z M 61.503,0 c 0,5.361 4.362,9.723 9.724,9.723 5.361,0 9.722,-4.362 9.722,-9.723 0,-5.361 -4.361,-9.723 -9.722,-9.723 -5.362,0 -9.724,4.362 -9.724,9.723 M 56.646,10.024 H 54.862 L 54.286,9.5 l -0.043,0.06 1.039,1.883 0.447,-0.261 z m -3.862,4.036 -0.536,0.314 7.176,2.364 H 48.199 l -0.725,0.424 h 13.473 v -0.511 z m 6.099,4.102 h -9.4 v 0.536 h 5.168 4.232 z m 0.909,2.393 -0.261,-0.232 h -0.41 l -0.019,0.99 h 0.473 l 0.217,-0.183 z m -1.659,-0.857 h -3.482 v 4.118 h -5.66 v 0.088 c 0.643,0.68 3.28,3.491 4.096,4.672 0.212,0.308 0.568,0.675 1.064,0.675 0.495,0 0.936,-0.33 1.122,-0.842 0.597,-1.623 2.537,-6.028 2.86,-6.76 z m -0.518,5.647 c -0.044,0.103 -0.088,0.207 -0.133,0.31 0.514,0.705 0.806,1.552 0.806,2.427 0,2.281 -1.855,4.137 -4.137,4.137 -2.281,0 -4.136,-1.856 -4.136,-4.137 0,-0.461 0.09,-0.907 0.237,-1.336 -0.077,-0.087 -0.154,-0.172 -0.231,-0.257 -0.201,0.515 -0.302,1.052 -0.302,1.593 0,2.444 1.988,4.433 4.432,4.433 2.445,0 4.433,-1.989 4.433,-4.433 0,-1 -0.355,-1.959 -0.969,-2.737 m -15.592,24.921 -0.112,-1.404 -2.002,-1.143 -1.208,0.386 -1.798,3.509 -1.857,5.648 c -0.027,0.134 -0.042,0.27 -0.042,0.409 0,1.111 0.904,2.016 2.016,2.016 1.111,0 2.015,-0.905 2.015,-2.016 0,-0.146 -0.015,-0.291 -0.046,-0.432 l -0.028,-0.133 0.92,-2.752 0.454,-1.621 z m 1.582,5.903 0.168,0.804 9.395,-1.613 -0.16,-0.858 z m -1.449,4.338 -0.135,-0.925 -2.438,0.37 c -0.631,0.709 -1.541,1.165 -2.563,1.165 -1.901,0 -3.447,-1.546 -3.447,-3.446 0,-0.22 0.035,-0.432 0.074,-0.642 l -0.679,0.154 0.615,3.264 0.246,1.256 1.124,-0.141 0.43,0.177 z m -10.93,-0.243 1.278,-0.14 -0.709,-3.764 -0.318,0.067 -0.682,0.755 -0.124,0.409 0.101,1.157 0.282,1.082 z m 1.557,-4.064 0.048,-0.012 -0.049,0.007 z m 7.683,1.471 c 0,0.36 -0.071,0.702 -0.174,1.028 l 2.006,-0.572 -0.507,-2.308 -1.404,0.176 -0.157,0.467 c 0.146,0.388 0.236,0.791 0.236,1.209 M 37.418,48.415 37.887,47.5 37.62,47.36 37.28,47.942 Z m 0.889,-3.476 0.24,0.869 0.488,0.298 2.267,-4.374 -0.566,-0.321 -0.722,0.22 z M 52.322,33.191 c -1.418,-0.51 -2.567,-1.589 -3.16,-2.965 l 0.115,7.164 2.016,-3.182 z m -5.839,9.984 1.841,-2.93 -0.155,-9.586 -7.859,15.162 z m -2.099,1.988 -3.961,1.698 2.097,1.196 z m 11.829,-16.41 c -0.333,0.91 -1.143,1.498 -2.062,1.498 -0.725,0 -1.396,-0.394 -1.888,-1.106 -0.249,-0.363 -0.698,-0.905 -1.207,-1.492 -0.019,0.142 -0.041,0.284 -0.041,0.429 0,1.73 1.407,3.137 3.136,3.137 1.73,0 3.137,-1.407 3.137,-3.137 0,-0.447 -0.107,-0.882 -0.288,-1.285 -0.33,0.786 -0.618,1.495 -0.787,1.956 m -7.222,-5.937 h 4.66 v -3.118 h -4.66 z M 32.67,20.088 h 1.815 l -0.903,-0.466 z m -3.121,0.473 3.797,-1.942 -3.959,-1.976 -3.428,1.964 z m -4.906,-0.473 h 1.946 l -0.973,-0.529 z m 1.934,-2.987 h -2.021 l 1.01,0.579 z m -4.997,3.515 3.642,-1.982 -3.609,-2.068 -3.321,2.071 z m -3.737,-0.528 h 0.921 l -0.921,-0.555 z m 1.023,-2.987 h -1.023 v 0.637 z m 12.945,-0.672 -0.297,0.158 2.209,1.101 0.011,-0.006 z m 15.066,-3.946 v 0.457 l 0.785,-0.457 z m 7.542,-0.536 -0.936,-1.697 -6.899,4.018 0.958,1.696 z m -4.508,3.791 h 3.284 L 51.096,15.046 Z M 43.694,10.45 h 1.447 l 1.4,1.033 1.791,0.019 0.684,0.192 4.306,-2.506 0.236,-0.35 L 53.51,8.795 H 52.506 L 49.48,6.944 C 48.003,8.676 45.988,9.93 43.694,10.45 m -6.544,3.35 -1.037,0.59 1.037,0.66 z m -3.555,2.597 2.784,1.815 h 2.543 l 0.89,0.89 h 1.807 l 0.932,-0.932 h 1.214 l 2.609,-1.524 0.147,-0.455 -0.625,-1.109 -0.598,-0.066 -2.48,1.444 h -5.313 l -2.751,-1.748 -0.574,0.125 -0.713,0.972 z m 11.775,1.994 -1.334,0.779 h -1.071 l -0.932,0.932 h -2.636 l -0.889,-0.89 h -2.426 l -0.125,-0.081 -1.282,-0.836 -0.701,0.403 4.629,2.39 h -8.084 -2.001 -6.155 -1.65 -3.87 v -2.332 -0.267 -2.388 h 3.957 1.56 7.937 l 0.557,-0.296 -6.012,-3.918 h -8.026 v 0.703 1.919 3.247 1.905 1.652 h 12.59 2.438 10.639 z m -14.526,3.922 h -0.437 v 1.13 h 0.437 z M 15.816,14.509 h -1.243 v 3.247 h 1.243 z m -2.243,5.152 V 17.756 14.509 13.59 h -0.278 v 25.894 h 0.278 z m 0.429,22.387 -0.333,-1.564 h -0.435 l -0.202,1.564 z m 1.236,1 h -3.344 -0.581 v 0.308 h 0.595 3.342 0.539 v -0.308 z m 38.693,10.949 0.292,1.562 0.082,0.107 1.189,-0.092 0.036,-0.025 -0.428,-1.997 -0.016,-0.006 -1.104,0.349 z m 2.019,-2.365 -0.234,0.978 5.026,-1.533 -0.279,-0.264 -0.826,-0.094 z m 6.617,0.211 h -0.983 l -0.587,0.181 0.522,3.443 2.915,-0.595 3.338,-0.815 c -0.921,-0.184 -1.618,-0.998 -1.618,-1.973 0,-0.521 0.204,-0.991 0.529,-1.349 l -3.275,1.402 z m 9.561,-1.3 h -0.322 v 0.333 3.032 h 0.322 z m 8.791,-0.934 -2.567,-0.468 c -0.005,0.034 -0.015,0.066 -0.022,0.098 l 0.802,0.2 v 0.891 h 0.063 l 0.336,-0.336 h 2.161 z m -1.787,5.382 -0.803,0.2 c 0.008,0.033 0.018,0.065 0.022,0.099 l 2.568,-0.469 0.774,-0.384 h -2.162 l -0.399,-0.336 z m -1.797,-6.035 -0.019,-0.003 0.018,0.031 -3.133,1.797 c -0.051,0.036 -0.1,0.129 -0.1,0.229 0,0.164 0.133,0.298 0.297,0.298 0.054,0 0.104,-0.013 0.149,-0.039 l 2.83,-2.243 z m -1.366,3.873 v -1.227 l -0.097,-0.112 -0.767,0.605 c -0.091,0.055 -0.176,0.085 -0.261,0.117 0.068,0.026 0.138,0.047 0.201,0.084 l 0.824,0.648 z m 1.347,2.649 0.018,-0.031 -0.001,-0.001 -0.018,0.033 z m -3.887,-2.897 c 0.14,-0.161 0.31,-0.289 0.513,-0.366 -0.203,-0.077 -0.373,-0.204 -0.513,-0.365 z m 1.057,0.541 c 0.016,0.016 -0.036,0.002 -0.088,10e-4 -0.164,0 -0.297,0.134 -0.297,0.298 0,0.1 0.048,0.192 0.13,0.247 l 3.099,1.776 z m -3.68,2.564 v -2.61 c -0.222,0.586 -0.631,1.086 -1.163,1.414 v 1.196 z m -3.652,-3.602 c 0,0.559 0.454,1.013 1.012,1.013 0.559,0 1.013,-0.454 1.013,-1.013 0,-0.559 -0.454,-1.013 -1.013,-1.013 -0.558,0 -1.012,0.454 -1.012,1.013 m -0.43,3.602 h 1.919 v -0.813 l -1.919,0.469 z m -10.227,-0.395 4.02,0.236 -0.486,-3.205 -3.911,1.207 z m 25.719,-5.036 0.157,0.079 v -0.001 z m -0.002,3.923 0.159,-0.081 h -0.06 z M 15.393,46.053 h -3.628 v 1.969 h 3.628 z M -1,0 c 0,-5.912 4.811,-10.723 10.723,-10.723 5.912,0 10.722,4.811 10.722,10.723 0,1.396 -0.276,2.726 -0.763,3.95 l 10.605,6.738 4.108,-1.417 h 1.567 C 32.764,7.413 30.603,3.958 30.603,0 c 0,-5.912 4.81,-10.723 10.722,-10.723 5.912,0 10.723,4.811 10.723,10.723 0,1.256 -0.228,2.457 -0.627,3.577 l 2.962,1.588 h 3.859 L 61.109,3.52 C 60.723,2.416 60.503,1.234 60.503,0 c 0,-5.912 4.81,-10.723 10.724,-10.723 5.912,0 10.722,4.811 10.722,10.723 0,5.912 -4.81,10.723 -10.722,10.723 -3.26,0 -6.18,-1.468 -8.148,-3.77 L 59.861,8.82 h -0.986 l -2.56,3.177 -2.367,1.383 7.999,2.539 v 2.243 h -2.064 v 1.161 h 0.027 l 0.882,0.781 v 1.491 l -0.852,0.718 h -1.007 c -0.182,0.414 -0.505,1.151 -0.875,2.005 0.969,1.008 1.526,2.358 1.526,3.764 0,2.921 -2.32,5.305 -5.213,5.421 l -1.743,1.743 -9.58,15.282 10e-4,0.011 -1.839,2.688 -0.193,0.738 2.106,-0.1 0.277,1.326 9.674,-1.715 0.203,-0.408 1.408,-0.444 0.435,-1.816 4.45,-1.103 1.338,0.152 0.874,0.829 v 0.163 l 1.035,0.022 0.554,0.193 3.631,-1.552 c 0.366,-0.167 0.758,-0.251 1.164,-0.251 0.913,0 1.717,0.442 2.233,1.115 h 0.407 v -0.833 h 2.221 l 0.39,-0.286 h 0.892 l 2.503,-1.413 4.489,0.839 2.072,1.031 v 1.62 h -1.415 l -0.418,-0.34 h -1.595 l -0.336,0.336 h -1.477 v -0.514 l -1.163,0.852 v 1.094 l 1.163,0.852 v -0.513 h 1.477 l 0.336,0.336 h 1.595 l 0.418,-0.34 h 1.415 v 1.621 l -2.205,1.075 -4.356,0.794 -2.503,-1.413 h -0.892 l -0.362,-0.266 h -1.249 v 2.368 h -1.397 l -0.25,-0.59 h -4.435 v -1.1 l -1.073,0.262 -0.437,0.089 -0.41,0.858 -2.033,0.349 -0.838,-0.591 -4.7,-0.276 -0.387,0.274 -2.006,0.154 -0.3,-0.393 -9.561,1.641 0.26,1.246 h -1.262 l 0.308,2.118 -8.014,1.459 -0.457,-0.189 -1.788,0.226 -0.333,-1.705 -2.118,0.233 -0.471,-1.205 -0.314,-1.221 -0.133,-1.43 0.321,-0.89 0.975,-1.08 1.138,-0.237 1.399,-0.184 0.982,-1.109 1.531,-2.808 0.752,-1.469 -0.555,-1.898 1.037,-1.778 0.39,0.204 -0.389,-1.408 2.08,-4.031 1.539,-0.468 0.905,0.515 7.018,-13.54 c 0.082,-0.564 0.254,-1.11 0.505,-1.619 -0.649,-0.704 -1.143,-1.224 -1.156,-1.237 l -0.138,-0.144 v -0.488 -5.118 h 0.492 v -0.536 h -1.95 v 0.474 l -3.632,3.677 H 31.844 v 2.13 h -2.438 v -2.13 h -13.59 v -2.652 h -1.243 v 20.272 l 0.452,2.115 h 1.764 v 2.308 H 15.25 v 0.697 h 1.143 v 3.968 h -5.628 v -3.968 h 1.143 v -0.697 h -1.595 v -2.308 h 1.71 l 0.272,-2.096 V 12.59 h 1.278 1 1.243 v -1.703 h 7.491 L 17.647,7.198 C 15.684,9.357 12.863,10.723 9.723,10.723 3.811,10.723 -1,5.912 -1,0"
               style="fill:#292f3b;fill-opacity:1;fill-rule:nonzero;stroke:none"
               id="path7970"
               inkscape:connector-curvature="0" /></g><g
             id="g7972"
             transform="translate(185.1561,271.6809)"><path
               d="M 0,0 C 0,3.434 2.793,6.227 6.227,6.227 9.66,6.227 12.453,3.434 12.453,0 12.453,-3.434 9.66,-6.227 6.227,-6.227 2.793,-6.227 0,-3.434 0,0 m -1,0 c 0,-3.984 3.242,-7.227 7.227,-7.227 3.984,0 7.226,3.243 7.226,7.227 0,3.984 -3.242,7.227 -7.226,7.227 C 2.242,7.227 -1,3.984 -1,0"
               style="fill:#292f3b;fill-opacity:1;fill-rule:nonzero;stroke:none"
               id="path7974"
               inkscape:connector-curvature="0" /></g><g
             id="g7976"
             transform="translate(187.7709,268.6208)"><path
               d="m 0,0 0.407,0.235 c 0.63,-0.714 1.464,-1.192 2.397,-1.371 v -0.48 C 1.683,-1.422 0.707,-0.833 0,0 m 4.468,-1.611 v 0.485 c 0.924,0.188 1.746,0.668 2.366,1.379 L 7.24,0.019 C 6.542,-0.812 5.579,-1.408 4.468,-1.611 M 7.24,6.101 6.834,5.866 C 6.213,6.578 5.39,7.059 4.468,7.247 V 7.731 C 5.579,7.528 6.542,6.932 7.24,6.101 M 2.804,7.736 V 7.256 C 1.871,7.077 1.036,6.6 0.407,5.884 L 0,6.12 c 0.707,0.833 1.683,1.422 2.804,1.616 m 0,-7.86 C 2.227,0.022 1.706,0.319 1.285,0.742 l 0.929,0.537 c 0.261,0.18 0.59,0.033 0.59,-0.249 z M 5.957,0.76 C 5.545,0.34 5.035,0.041 4.468,-0.111 V 1.03 c 0,0.245 0.295,0.415 0.503,0.3 z M 4.468,6.231 C 5.035,6.08 5.544,5.78 5.957,5.36 L 4.931,4.768 C 4.913,4.76 4.862,4.749 4.809,4.749 4.622,4.749 4.468,4.902 4.468,5.089 Z M 1.285,5.377 C 1.706,5.801 2.227,6.098 2.804,6.244 V 5.089 c 0,-0.187 -0.153,-0.34 -0.341,-0.34 -0.086,0 -0.151,0.032 -0.191,0.058 z m 5.5,-3.173 -0.994,0.575 c -0.072,0.05 -0.132,0.164 -0.132,0.286 0,0.119 0.055,0.228 0.152,0.299 L 6.783,3.922 C 6.858,3.643 6.91,3.357 6.91,3.06 6.91,2.766 6.859,2.482 6.785,2.204 m -4.324,0.17 c -0.019,0 -0.037,-0.009 -0.056,-0.009 0.122,0.207 0.19,0.444 0.19,0.694 0,0.251 -0.068,0.49 -0.19,0.698 0.02,-0.001 0.038,-0.008 0.058,-0.008 0.515,0 0.949,0.3 1.173,0.727 0.225,-0.427 0.659,-0.727 1.173,-0.727 0.017,0 0.033,0.004 0.05,0.005 C 4.731,3.542 4.659,3.309 4.659,3.065 4.659,2.813 4.734,2.574 4.86,2.364 4.843,2.365 4.826,2.371 4.809,2.371 4.295,2.371 3.862,2.07 3.637,1.644 3.412,2.072 2.977,2.374 2.461,2.374 M 0.447,3.941 1.385,3.399 c 0.134,-0.073 0.21,-0.2 0.21,-0.34 0,-0.133 -0.067,-0.253 -0.181,-0.322 L 0.447,2.179 C 0.368,2.464 0.314,2.757 0.314,3.06 c 0,0.303 0.054,0.595 0.133,0.881 M 8.073,1.459 7.663,1.696 c 0.148,0.44 0.247,0.892 0.247,1.364 0,0.474 -0.1,0.927 -0.248,1.366 l 0.41,0.236 C 8.254,4.159 8.37,3.625 8.37,3.06 8.37,2.496 8.254,1.962 8.073,1.459 M -0.841,4.685 -0.43,4.447 C -0.583,4.001 -0.686,3.541 -0.686,3.06 c 0,-0.481 0.103,-0.941 0.256,-1.388 L -0.841,1.435 c -0.187,0.509 -0.305,1.052 -0.305,1.625 0,0.573 0.118,1.116 0.305,1.625 M -2.146,3.06 c 0,-3.175 2.583,-5.758 5.758,-5.758 3.175,0 5.758,2.583 5.758,5.758 0,3.175 -2.583,5.758 -5.758,5.758 -3.175,0 -5.758,-2.583 -5.758,-5.758"
               style="fill:#292f3b;fill-opacity:1;fill-rule:nonzero;stroke:none"
               id="path7978"
               inkscape:connector-curvature="0" /></g><g
             id="g7980"
             transform="translate(222.9852,277.9074)"><path
               d="m 0,0 c 3.434,0 6.227,-2.793 6.227,-6.227 0,-3.433 -2.793,-6.226 -6.227,-6.226 -3.434,0 -6.227,2.793 -6.227,6.226 C -6.227,-2.793 -3.434,0 0,0 m 0,1 c -3.984,0 -7.227,-3.242 -7.227,-7.227 0,-3.984 3.243,-7.226 7.227,-7.226 3.984,0 7.227,3.242 7.227,7.226 C 7.227,-2.242 3.984,1 0,1"
               style="fill:#292f3b;fill-opacity:1;fill-rule:nonzero;stroke:none"
               id="path7982"
               inkscape:connector-curvature="0" /></g><g
             id="g7984"
             transform="translate(222.1776,276.3571)"><path
               d="m 0,0 v -0.48 c -0.933,-0.179 -1.768,-0.657 -2.397,-1.372 l -0.408,0.235 C -2.098,-0.783 -1.122,-0.194 0,0 m -2.804,-7.736 0.407,0.235 C -1.768,-8.216 -0.933,-8.693 0,-8.872 v -0.481 c -1.121,0.194 -2.097,0.783 -2.804,1.617 m 4.468,-1.612 v 0.485 c 0.923,0.188 1.746,0.669 2.366,1.38 L 4.436,-7.717 C 3.737,-8.549 2.774,-9.144 1.664,-9.348 M 4.436,-1.636 4.03,-1.87 c -0.621,0.712 -1.444,1.192 -2.366,1.38 v 0.485 c 1.11,-0.203 2.074,-0.799 2.772,-1.631 M -1.52,-2.359 c 0.422,0.423 0.943,0.72 1.52,0.867 v -1.155 c 0,-0.187 -0.153,-0.341 -0.341,-0.341 -0.086,0 -0.151,0.032 -0.191,0.059 z M 0,-7.86 c -0.577,0.146 -1.098,0.443 -1.519,0.866 l 0.929,0.536 C -0.328,-6.277 0,-6.424 0,-6.707 Z m 3.152,0.884 C 2.741,-7.396 2.231,-7.695 1.664,-7.848 v 1.141 c -10e-4,0.246 0.294,0.415 0.503,0.3 z M 1.664,-1.505 C 2.23,-1.657 2.74,-1.956 3.152,-2.376 L 2.127,-2.968 c -0.019,-0.008 -0.069,-0.02 -0.122,-0.02 -0.188,0 -0.341,0.154 -0.341,0.341 z M 3.98,-5.532 2.986,-4.958 c -0.071,0.05 -0.132,0.165 -0.132,0.287 0,0.119 0.056,0.228 0.153,0.298 l 0.972,0.559 c 0.075,-0.28 0.126,-0.565 0.126,-0.862 0,-0.295 -0.05,-0.578 -0.125,-0.856 m -6.337,1.737 0.938,-0.542 c 0.134,-0.074 0.21,-0.201 0.21,-0.34 0,-0.133 -0.067,-0.253 -0.182,-0.323 l -0.966,-0.558 c -0.08,0.286 -0.133,0.579 -0.133,0.882 0,0.303 0.053,0.595 0.133,0.881 m 3.189,0.534 c 0.225,-0.426 0.659,-0.727 1.173,-0.727 0.017,0 0.033,0.005 0.05,0.006 -0.128,-0.212 -0.201,-0.446 -0.201,-0.689 0,-0.253 0.076,-0.492 0.202,-0.701 -0.017,0 -0.034,0.006 -0.051,0.006 -0.514,0 -0.947,-0.301 -1.172,-0.726 -0.226,0.427 -0.66,0.729 -1.176,0.729 -0.019,0 -0.037,-0.008 -0.056,-0.009 0.122,0.207 0.19,0.444 0.19,0.695 0,0.25 -0.068,0.49 -0.19,0.698 0.02,-10e-4 0.038,-0.009 0.058,-0.009 0.515,0 0.948,0.301 1.173,0.727 m 4.437,-3.016 -0.41,0.237 c 0.147,0.439 0.246,0.892 0.246,1.364 0,0.473 -0.099,0.926 -0.248,1.366 l 0.411,0.236 c 0.182,-0.503 0.297,-1.038 0.297,-1.602 0,-0.565 -0.115,-1.098 -0.296,-1.601 m -8.915,3.226 0.412,-0.238 c -0.154,-0.446 -0.256,-0.906 -0.256,-1.387 0,-0.481 0.102,-0.942 0.256,-1.388 l -0.412,-0.237 c -0.186,0.509 -0.304,1.051 -0.304,1.625 0,0.573 0.118,1.115 0.304,1.625 m 4.454,4.133 c -3.175,0 -5.758,-2.583 -5.758,-5.758 0,-3.175 2.583,-5.758 5.758,-5.758 3.174,0 5.757,2.583 5.757,5.758 0,3.175 -2.583,5.758 -5.757,5.758"
               style="fill:#292f3b;fill-opacity:1;fill-rule:nonzero;stroke:none"
               id="path7986"
               inkscape:connector-curvature="0" /></g><g
             id="g7988"
             transform="translate(246.9218,273.4719)"><path
               d="m 0,0 c 0.479,1.593 1.549,2.904 3.014,3.692 0.92,0.495 1.925,0.747 2.942,0.747 0.602,0 1.206,-0.088 1.799,-0.266 1.594,-0.479 2.904,-1.549 3.692,-3.014 0.788,-1.464 0.959,-3.148 0.481,-4.741 C 11.45,-5.175 10.38,-6.486 8.915,-7.274 7.449,-8.063 5.766,-8.232 4.174,-7.755 2.581,-7.276 1.27,-6.206 0.481,-4.741 -0.307,-3.277 -0.478,-1.593 0,0 m -0.957,0.287 c -0.556,-1.849 -0.357,-3.803 0.558,-5.503 0.915,-1.699 2.437,-2.941 4.286,-3.497 0.687,-0.206 1.389,-0.308 2.088,-0.308 1.179,0 2.346,0.292 3.415,0.866 1.699,0.915 2.941,2.437 3.496,4.286 0.555,1.848 0.357,3.803 -0.558,5.503 C 11.414,3.333 9.892,4.575 8.043,5.131 6.195,5.686 4.241,5.487 2.539,4.573 0.84,3.658 -0.402,2.136 -0.957,0.287"
               style="fill:#292f3b;fill-opacity:1;fill-rule:nonzero;stroke:none"
               id="path7990"
               inkscape:connector-curvature="0" /></g><g
             id="g7992"
             transform="translate(250.6317,275.8703)"><path
               d="M 0,0 C 0.491,0.265 1.015,0.432 1.55,0.513 L 1.536,0.024 C 1.078,-0.054 0.632,-0.181 0.218,-0.404 -0.199,-0.629 -0.551,-0.932 -0.868,-1.271 l -0.402,0.25 C -0.913,-0.623 -0.497,-0.268 0,0 m -1.483,-7.118 0.426,0.229 C -0.458,-7.625 0.358,-8.134 1.286,-8.35 L 1.271,-8.823 c -0.127,0.028 -0.257,0.038 -0.384,0.076 -0.955,0.287 -1.769,0.859 -2.37,1.629 M 4.509,-8.379 C 4.011,-8.647 3.478,-8.806 2.935,-8.885 l 0.014,0.479 c 0.465,0.076 0.918,0.203 1.342,0.431 0.424,0.229 0.78,0.538 1.101,0.884 l 0.404,-0.25 C 5.436,-7.747 5.014,-8.107 4.509,-8.379 M 5.965,-1.22 5.535,-1.451 C 4.933,-0.728 4.12,-0.231 3.199,-0.022 L 3.213,0.459 C 3.35,0.431 3.488,0.409 3.623,0.368 4.562,0.086 5.367,-0.47 5.965,-1.22 m -5.971,-0.585 c 0.21,0.199 0.437,0.379 0.698,0.52 0.259,0.139 0.533,0.229 0.813,0.295 L 1.47,-2.137 C 1.46,-2.224 1.388,-2.332 1.28,-2.39 1.176,-2.445 1.054,-2.449 0.945,-2.396 Z m 1.322,-5.532 c -0.572,0.17 -1.08,0.488 -1.482,0.928 l 1.017,0.547 c 0.163,0.087 0.372,0.028 0.461,-0.14 0.032,-0.059 0.045,-0.126 0.039,-0.193 z M 4.53,-6.559 C 4.316,-6.764 4.085,-6.95 3.817,-7.094 3.551,-7.238 3.268,-7.329 2.979,-7.394 l 0.033,1.083 c 0,0.153 0.076,0.281 0.199,0.346 0.114,0.063 0.253,0.062 0.369,-0.007 z M 3.168,-1.035 C 3.734,-1.199 4.239,-1.506 4.642,-1.932 L 3.636,-2.474 c -0.163,-0.087 -0.371,-0.028 -0.462,0.14 -0.026,0.049 -0.04,0.106 -0.04,0.161 z M 5.399,-5.14 4.485,-4.575 c -0.092,0.047 -0.156,0.091 -0.2,0.172 -0.09,0.167 -0.027,0.375 0.14,0.465 l 1.016,0.546 C 5.586,-3.969 5.572,-4.568 5.399,-5.14 m -6.281,1.925 1.007,-0.623 C 0.141,-3.85 0.176,-3.89 0.201,-3.937 0.289,-4.101 0.227,-4.309 0.061,-4.397 l -1.006,-0.541 c -0.134,0.571 -0.112,1.161 0.063,1.723 m 3.158,0.453 c 0.007,-0.014 0.01,-0.03 0.017,-0.045 0.243,-0.451 0.708,-0.707 1.186,-0.707 H 3.48 C 3.22,-3.913 3.164,-4.429 3.404,-4.878 3.414,-4.896 3.43,-4.908 3.44,-4.925 3.197,-4.916 2.954,-4.967 2.736,-5.084 2.516,-5.203 2.338,-5.377 2.213,-5.583 c -0.009,0.018 -0.011,0.038 -0.021,0.056 -0.245,0.452 -0.715,0.691 -1.196,0.688 0.269,0.4 0.329,0.924 0.085,1.377 -0.008,0.015 -0.019,0.026 -0.028,0.041 0.023,-0.002 0.046,-0.009 0.068,-0.009 0.223,0 0.439,0.055 0.633,0.159 0.222,0.12 0.397,0.299 0.522,0.509 M 6.662,-5.92 6.261,-5.672 c 0.331,0.894 0.356,1.855 0.071,2.76 l 0.423,0.228 C 7.116,-3.764 7.06,-4.902 6.662,-5.92 m -8.805,3.484 0.399,-0.247 c -0.332,-0.882 -0.365,-1.835 -0.094,-2.736 l -0.427,-0.23 c -0.347,1.074 -0.279,2.204 0.122,3.213 m 1.668,3.317 c -2.796,-1.504 -3.845,-5.003 -2.341,-7.8 0.729,-1.353 1.942,-2.344 3.415,-2.785 0.547,-0.165 1.107,-0.246 1.663,-0.246 0.94,0 1.871,0.232 2.721,0.69 2.796,1.504 3.846,5.003 2.342,7.8 C 6.597,-0.106 5.384,0.884 3.91,1.325 2.439,1.769 0.881,1.61 -0.475,0.881"
               style="fill:#292f3b;fill-opacity:1;fill-rule:nonzero;stroke:none"
               id="path7994"
               inkscape:connector-curvature="0" /></g><g
             id="g7996"
             transform="translate(308.5468,306.4377)"><path
               d="M 0,0 3.859,5.984 11.622,-5.638 H 3.686 Z m -15.091,26.236 h 6.635 V 7.155 L 2.906,26.236 h 7.502 L -10.061,-5.638 h -5.03 z"
               style="fill:#292f3b;fill-opacity:1;fill-rule:nonzero;stroke:none"
               id="path7998"
               inkscape:connector-curvature="0" /></g><g
             id="g8000"
             transform="translate(326.0697,317.4524)"><path
               d="M 0,0 6.635,-6.418 V -16.652 H 0 Z m 0,7.502 v 8.283 h 0.174 l 18.82,-18.257 v 17.693 h 6.635 v -32.437 h -0.173 z"
               style="fill:#292f3b;fill-opacity:1;fill-rule:nonzero;stroke:none"
               id="path8002"
               inkscape:connector-curvature="0" /></g><g
             id="g8004"
             transform="translate(385.5277,300.8)"><path
               d="m 0,0 h -7.632 l -5.681,11.145 v 5.811 h 0.086 c 2.949,0 4.987,1.605 4.987,4.597 0,2.948 -2.124,4.596 -4.943,4.596 h -0.13 v 5.725 h 0.477 c 6.114,0 11.318,-3.73 11.318,-10.321 0,-4.207 -2.082,-7.242 -5.16,-8.934 z m -25.369,31.874 h 6.635 V 0 h -6.635 z"
               style="fill:#292f3b;fill-opacity:1;fill-rule:nonzero;stroke:none"
               id="path8006"
               inkscape:connector-curvature="0" /></g><g
             id="g8008"
             transform="translate(428.5497,300.8)"><path
               d="m 0,0 h -7.632 l -5.681,11.145 v 5.811 h 0.086 c 2.949,0 4.987,1.605 4.987,4.597 0,2.948 -2.124,4.596 -4.943,4.596 h -0.13 v 5.725 h 0.477 c 6.114,0 11.318,-3.73 11.318,-10.321 0,-4.207 -2.082,-7.242 -5.16,-8.934 z m -25.369,31.874 h 6.635 V 0 h -6.635 z"
               style="fill:#292f3b;fill-opacity:1;fill-rule:nonzero;stroke:none"
               id="path8010"
               inkscape:connector-curvature="0" /></g><g
             id="g8012"
             transform="translate(438.8734,311.7282)"><path
               d="m 0,0 c 0,-3.383 2.082,-5.768 5.074,-5.768 3.035,0 5.16,2.385 5.16,5.768 0,3.469 -2.125,5.897 -5.16,5.897 C 2.082,5.897 0,3.469 0,0 m 16.696,0 c 0,-6.592 -4.944,-11.362 -11.622,-11.362 -6.678,0 -11.579,4.77 -11.579,11.362 0,6.591 4.901,11.492 11.579,11.492 6.678,0 11.622,-4.901 11.622,-11.492"
               style="fill:#292f3b;fill-opacity:1;fill-rule:nonzero;stroke:none"
               id="path8014"
               inkscape:connector-curvature="0" /></g><g
             id="g8016"
             transform="translate(470.5326,300.3664)"><path
               d="m 0,0 h -0.173 l -12.099,22.42 h 7.068 L -0.086,11.492 5.03,22.42 h 7.026 z"
               style="fill:#292f3b;fill-opacity:1;fill-rule:nonzero;stroke:none"
               id="path8018"
               inkscape:connector-curvature="0" /></g><g
             id="g8020"
             transform="translate(491.7845,314.07)"><path
               d="M 0,0 H 8.5 C 8.413,2.472 6.982,4.336 4.424,4.336 1.821,4.336 0.13,2.515 0,0 M 14.788,-1.995 V -4.033 H -0.043 c 0.173,-2.776 2.125,-4.38 5.247,-4.38 2.212,0 3.946,0.954 4.9,2.211 l 4.293,-3.252 c -2.168,-2.775 -5.291,-4.25 -9.41,-4.25 -6.895,0 -11.492,4.77 -11.492,11.362 0,6.592 4.51,11.492 11.102,11.492 6.895,0 10.191,-5.117 10.191,-11.145"
               style="fill:#292f3b;fill-opacity:1;fill-rule:nonzero;stroke:none"
               id="path8022"
               inkscape:connector-curvature="0" /></g><g
             id="g8024"
             transform="translate(525.2211,316.8454)"><path
               d="m 0,0 h -0.521 c -2.558,0 -4.206,-1.258 -5.463,-2.906 v -13.139 h -6.418 V 5.941 h 5.723 L -6.331,3.036 C -5.247,4.857 -3.035,6.375 0,6.375 Z"
               style="fill:#292f3b;fill-opacity:1;fill-rule:nonzero;stroke:none"
               id="path8026"
               inkscape:connector-curvature="0" /></g><path
             d="m 551.114,321.399 h 6.635 V 300.8 h -6.635 z m -10.322,11.275 h 27.276 v -5.854 h -27.276 z"
             style="fill:#292f3b;fill-opacity:1;fill-rule:nonzero;stroke:none"
             id="path8028"
             inkscape:connector-curvature="0" /><g
             id="g8030"
             transform="translate(573.015,314.07)"><path
               d="M 0,0 H 8.5 C 8.413,2.472 6.982,4.336 4.424,4.336 1.821,4.336 0.13,2.515 0,0 M 14.788,-1.995 V -4.033 H -0.043 c 0.173,-2.776 2.125,-4.38 5.247,-4.38 2.212,0 3.946,0.954 4.9,2.211 l 4.293,-3.252 c -2.168,-2.775 -5.291,-4.25 -9.41,-4.25 -6.895,0 -11.492,4.77 -11.492,11.362 0,6.592 4.51,11.492 11.102,11.492 6.895,0 10.191,-5.117 10.191,-11.145"
               style="fill:#292f3b;fill-opacity:1;fill-rule:nonzero;stroke:none"
               id="path8032"
               inkscape:connector-curvature="0" /></g><g
             id="g8034"
             transform="translate(599.6439,311.7717)"><path
               d="m 0,0 c 0,-3.6 1.908,-5.811 4.727,-5.811 2.169,0 3.426,1.171 4.379,2.732 V 3.122 C 8.153,4.683 6.896,5.854 4.727,5.854 1.908,5.854 0,3.599 0,0 m 9.454,8.543 0.304,2.472 h 5.767 V -10.972 H 9.758 l -0.304,2.429 c -1.128,-1.561 -3.209,-2.862 -6.288,-2.862 -5.812,0 -9.671,4.813 -9.671,11.405 0,6.591 3.859,11.448 9.671,11.448 3.079,0 5.16,-1.301 6.288,-2.905"
               style="fill:#292f3b;fill-opacity:1;fill-rule:nonzero;stroke:none"
               id="path8036"
               inkscape:connector-curvature="0" /></g><g
             id="g8038"
             transform="translate(656.6283,313.4626)"><path
               d="m 0,0 v -12.663 h -6.418 v 12.316 c 0,2.429 -1.214,4.076 -3.339,4.076 -1.908,0 -3.166,-1.214 -4.033,-2.558 V 0.65 -12.663 h -6.418 v 12.316 c 0,2.429 -1.214,4.076 -3.339,4.076 -1.908,0 -3.166,-1.257 -4.033,-2.558 v -13.834 h -6.418 V 9.324 h 5.724 l 0.303,-2.429 c 1.128,1.562 3.209,2.862 6.288,2.862 3.079,0 5.291,-1.387 6.592,-3.773 1.562,2.212 3.817,3.773 7.198,3.773 C -2.775,9.757 0,5.941 0,0"
               style="fill:#292f3b;fill-opacity:1;fill-rule:nonzero;stroke:none"
               id="path8040"
               inkscape:connector-curvature="0" /></g><path
             d="m 0,0 h -1.979 l -4.246,5.31 3.45,3.794 -0.914,0.121 c -0.046,0.24 -0.046,0.54 0,0.825 h 3.449 c 0.045,-0.285 0.045,-0.585 0,-0.825 L -1.365,9.074 -4.62,5.399 -4.919,5.325 V 5.295 L -4.62,5.22 -1.125,0.96 0,0.825 C 0.045,0.585 0.045,0.285 0,0 m -5.55,0.825 c 0.046,-0.24 0.046,-0.54 0,-0.825 h -3.524 c -0.046,0.285 -0.046,0.585 0,0.825 l 1.125,0.15 v 8.099 l -1.125,0.151 c -0.046,0.24 -0.046,0.54 0,0.825 h 3.524 c 0.046,-0.285 0.046,-0.585 0,-0.825 L -6.674,9.074 V 0.975 Z"
             style="fill:#292f3b;fill-opacity:1;fill-rule:nonzero;stroke:none"
             id="path8044"
             inkscape:connector-curvature="0"
             transform="translate(302.5658,261.4577)" /><g
             id="g8046"
             transform="translate(313.0214,266.4821)"><path
               d="M 0,0 C 0,2.851 -1.68,4.05 -3.525,4.05 -5.37,4.05 -7.05,2.851 -7.05,0 c 0,-2.85 1.68,-4.05 3.525,-4.05 C -1.68,-4.05 0,-2.85 0,0 m 1.35,0 c 0,-3.885 -2.505,-5.175 -4.875,-5.175 -2.37,0 -4.875,1.29 -4.875,5.175 0,3.885 2.505,5.175 4.875,5.175 2.37,0 4.875,-1.29 4.875,-5.175"
               style="fill:#292f3b;fill-opacity:1;fill-rule:nonzero;stroke:none"
               id="path8048"
               inkscape:connector-curvature="0" /></g><g
             id="g8050"
             transform="translate(324.6761,263.8874)"><path
               d="m 0,0 v -2.43 h -7.05 c -0.045,0.285 -0.045,0.585 0,0.826 l 1.125,0.149 V 2.01 L -7.59,0.945 V 2.07 l 1.665,0.945 v 3.63 l -1.125,0.15 c -0.045,0.24 -0.045,0.54 0,0.825 h 3.525 c 0.045,-0.285 0.045,-0.585 0,-0.825 L -4.65,6.645 V 3.615 L -2.715,4.77 V 3.646 L -4.65,2.595 v -3.9 h 3.555 L -0.975,0 C -0.72,0.045 -0.255,0.045 0,0"
               style="fill:#292f3b;fill-opacity:1;fill-rule:nonzero;stroke:none"
               id="path8052"
               inkscape:connector-curvature="0" /></g><g
             id="g8054"
             transform="translate(335.2963,266.4821)"><path
               d="M 0,0 C 0,2.851 -1.68,4.05 -3.525,4.05 -5.37,4.05 -7.05,2.851 -7.05,0 c 0,-2.85 1.68,-4.05 3.525,-4.05 C -1.68,-4.05 0,-2.85 0,0 m 1.35,0 c 0,-3.885 -2.505,-5.175 -4.875,-5.175 -2.37,0 -4.875,1.29 -4.875,5.175 0,3.885 2.505,5.175 4.875,5.175 2.37,0 4.875,-1.29 4.875,-5.175"
               style="fill:#292f3b;fill-opacity:1;fill-rule:nonzero;stroke:none"
               id="path8056"
               inkscape:connector-curvature="0" /></g><g
             id="g8058"
             transform="translate(355.2904,270.6823)"><path
               d="m 0,0 -1.125,-0.15 v -9.075 h -1.83 l -4.95,8.265 -0.165,0.6 H -8.1 v -7.89 l 1.125,-0.149 c 0.045,-0.241 0.045,-0.54 0,-0.826 H -10.5 c -0.044,0.286 -0.044,0.585 0,0.826 l 1.125,0.149 v 8.1 L -10.5,0 c -0.044,0.24 -0.044,0.54 0,0.825 h 2.955 l 4.935,-8.25 0.18,-0.75 H -2.4 V -0.15 L -3.525,0 c -0.045,0.24 -0.045,0.54 0,0.825 H 0 C 0.045,0.54 0.045,0.24 0,0"
               style="fill:#292f3b;fill-opacity:1;fill-rule:nonzero;stroke:none"
               id="path8060"
               inkscape:connector-curvature="0" /></g><g
             id="g8062"
             transform="translate(364.2308,265.8825)"><path
               d="M 0,0 -1.485,3.899 -1.545,4.5 h -0.03 L -1.636,3.899 -3.15,0 Z M 3.779,-4.425 H 0.255 C 0.21,-4.14 0.21,-3.84 0.255,-3.6 l 1.064,0.135 -0.899,2.34 H -3.585 L -4.5,-3.45 -3.405,-3.6 c 0.045,-0.24 0.045,-0.54 0,-0.825 H -6.93 c -0.046,0.285 -0.046,0.585 0,0.825 l 1.095,0.15 3.314,8.144 L -3.42,4.8 c -0.045,0.24 -0.045,0.54 0,0.825 h 2.55 l 3.599,-9.09 1.05,-0.135 c 0.045,-0.24 0.045,-0.54 0,-0.825"
               style="fill:#292f3b;fill-opacity:1;fill-rule:nonzero;stroke:none"
               id="path8064"
               inkscape:connector-curvature="0" /></g><g
             id="g8066"
             transform="translate(379.9955,270.6823)"><path
               d="M 0,0 -1.125,-0.15 V -5.7 c 0,-2.475 -1.485,-3.675 -3.825,-3.675 -2.34,0 -3.825,1.2 -3.825,3.675 v 5.55 L -9.9,0 c -0.045,0.24 -0.045,0.54 0,0.825 h 3.525 C -6.33,0.54 -6.33,0.24 -6.375,0 L -7.5,-0.15 V -5.7 c 0,-1.65 0.81,-2.55 2.55,-2.55 1.74,0 2.55,0.9 2.55,2.55 v 5.55 L -3.525,0 c -0.045,0.24 -0.045,0.54 0,0.825 H 0 C 0.045,0.54 0.045,0.24 0,0"
               style="fill:#292f3b;fill-opacity:1;fill-rule:nonzero;stroke:none"
               id="path8068"
               inkscape:connector-curvature="0" /></g><g
             id="g8070"
             transform="translate(391.6058,261.4577)"><path
               d="m 0,0 h -1.98 l -4.245,5.31 3.45,3.794 -0.915,0.121 c -0.045,0.24 -0.045,0.54 0,0.825 h 3.45 c 0.045,-0.285 0.045,-0.585 0,-0.825 L -1.365,9.074 -4.62,5.399 -4.92,5.325 V 5.295 L -4.62,5.22 -1.125,0.96 0,0.825 C 0.045,0.585 0.045,0.285 0,0 m -5.55,0.825 c 0.045,-0.24 0.045,-0.54 0,-0.825 h -3.525 c -0.045,0.285 -0.045,0.585 0,0.825 l 1.125,0.15 v 8.099 l -1.125,0.151 c -0.045,0.24 -0.045,0.54 0,0.825 h 3.525 c 0.045,-0.285 0.045,-0.585 0,-0.825 L -6.675,9.074 V 0.975 Z"
               style="fill:#292f3b;fill-opacity:1;fill-rule:nonzero;stroke:none"
               id="path8072"
               inkscape:connector-curvature="0" /></g><g
             id="g8074"
             transform="translate(402.0609,266.4821)"><path
               d="M 0,0 C 0,2.851 -1.68,4.05 -3.525,4.05 -5.37,4.05 -7.05,2.851 -7.05,0 c 0,-2.85 1.68,-4.05 3.525,-4.05 C -1.68,-4.05 0,-2.85 0,0 m 1.35,0 c 0,-3.885 -2.505,-5.175 -4.875,-5.175 -2.37,0 -4.874,1.29 -4.874,5.175 0,3.885 2.504,5.175 4.874,5.175 2.37,0 4.875,-1.29 4.875,-5.175"
               style="fill:#292f3b;fill-opacity:1;fill-rule:nonzero;stroke:none"
               id="path8076"
               inkscape:connector-curvature="0" /></g><g
             id="g8078"
             transform="translate(420.7201,270.6823)"><path
               d="M 0,0 -1.079,-0.15 -3.81,-9.225 h -1.514 l -2.115,8.175 -0.06,0.6 h -0.03 l -0.06,-0.6 -2.115,-8.175 h -1.515 l -2.73,9.075 -1.08,0.15 c -0.045,0.24 -0.045,0.54 0,0.825 h 3.525 c 0.045,-0.285 0.045,-0.585 0,-0.825 l -1.095,-0.15 2.07,-7.35 0.06,-0.6 h 0.03 l 0.06,0.6 2.085,8.175 h 1.605 l 2.04,-8.175 0.059,-0.6 h 0.03 l 0.061,0.6 2.069,7.365 L -3.494,0 c -0.045,0.24 -0.045,0.54 0,0.825 H 0 C 0.045,0.54 0.045,0.24 0,0"
               style="fill:#292f3b;fill-opacity:1;fill-rule:nonzero;stroke:none"
               id="path8080"
               inkscape:connector-curvature="0" /></g><g
             id="g8082"
             transform="translate(430.1556,263.8874)"><path
               d="m 0,0 v -2.43 h -7.2 c -0.045,0.285 -0.045,0.585 0,0.826 l 1.125,0.149 v 8.1 L -7.2,6.795 c -0.045,0.24 -0.045,0.54 0,0.825 h 6.9 V 5.19 c -0.255,-0.045 -0.721,-0.045 -0.975,0 L -1.396,6.495 H -4.8 V 3.18 l 3.525,0.091 V 2.146 L -4.8,2.235 v -3.54 h 3.705 L -0.976,0 C -0.72,0.045 -0.255,0.045 0,0"
               style="fill:#292f3b;fill-opacity:1;fill-rule:nonzero;stroke:none"
               id="path8084"
               inkscape:connector-curvature="0" /></g><g
             id="g8086"
             transform="translate(440.0101,266.9929)"><path
               d="m 0,0 c 0.51,-0.045 1.035,-0.061 1.604,-0.061 1.096,0 1.92,0.526 1.92,1.725 0,1.351 -0.824,1.875 -1.92,1.875 C 1.035,3.539 0.51,3.524 0,3.479 Z M 6.285,-5.535 H 4.305 L 1.29,-1.186 C 0.84,-1.17 0.405,-1.155 0,-1.125 V -4.561 L 1.125,-4.71 c 0.045,-0.24 0.045,-0.54 0,-0.825 h -3.524 c -0.046,0.285 -0.046,0.585 0,0.825 l 1.124,0.149 v 8.1 l -1.124,0.15 c -0.046,0.241 -0.046,0.54 0,0.826 h 1.124 c 0.915,0 1.815,0.149 2.879,0.149 1.831,0 3.271,-0.975 3.271,-3 0,-1.484 -0.9,-2.399 -2.19,-2.729 L 5.16,-4.561 6.285,-4.71 c 0.045,-0.24 0.045,-0.54 0,-0.825"
               style="fill:#292f3b;fill-opacity:1;fill-rule:nonzero;stroke:none"
               id="path8088"
               inkscape:connector-curvature="0" /></g><g
             id="g8090"
             transform="translate(456.975,266.4821)"><path
               d="M 0,0 C 0,2.851 -1.68,4.05 -3.525,4.05 -5.37,4.05 -7.05,2.851 -7.05,0 c 0,-2.85 1.68,-4.05 3.525,-4.05 C -1.68,-4.05 0,-2.85 0,0 m 1.35,0 c 0,-3.885 -2.505,-5.175 -4.875,-5.175 -2.37,0 -4.874,1.29 -4.874,5.175 0,3.885 2.504,5.175 4.874,5.175 2.37,0 4.875,-1.29 4.875,-5.175"
               style="fill:#292f3b;fill-opacity:1;fill-rule:nonzero;stroke:none"
               id="path8092"
               inkscape:connector-curvature="0" /></g><g
             id="g8094"
             transform="translate(467.7299,264.2478)"><path
               d="M 0,0 C 0,1.575 -1.351,1.785 -2.475,1.785 H -4.05 v -3.54 c 0.51,-0.045 1.035,-0.06 1.605,-0.06 C -0.976,-1.815 0,-1.351 0,0 m -4.05,2.91 h 1.575 c 1.124,0 2.025,0.675 2.025,1.8 0,0.944 -0.675,1.574 -1.995,1.574 -0.57,0 -1.095,-0.014 -1.605,-0.059 z M 1.35,0 c 0,-2.055 -1.725,-2.94 -3.795,-2.94 -1.065,0 -1.965,0.15 -2.88,0.15 H -6.45 c -0.045,0.285 -0.045,0.585 0,0.825 l 1.125,0.15 V 6.284 L -6.45,6.435 c -0.045,0.24 -0.045,0.54 0,0.825 h 1.125 c 0.915,0 1.815,0.149 2.88,0.149 1.92,0 3.344,-1.019 3.344,-2.699 0,-1.351 -1.064,-2.16 -1.559,-2.266 V 2.415 C -0.165,2.31 1.35,1.725 1.35,0"
               style="fill:#292f3b;fill-opacity:1;fill-rule:nonzero;stroke:none"
               id="path8096"
               inkscape:connector-curvature="0" /></g><g
             id="g8098"
             transform="translate(480.7797,266.4821)"><path
               d="M 0,0 C 0,2.851 -1.68,4.05 -3.525,4.05 -5.37,4.05 -7.05,2.851 -7.05,0 c 0,-2.85 1.68,-4.05 3.525,-4.05 C -1.68,-4.05 0,-2.85 0,0 m 1.35,0 c 0,-3.885 -2.505,-5.175 -4.875,-5.175 -2.37,0 -4.874,1.29 -4.874,5.175 0,3.885 2.504,5.175 4.874,5.175 2.37,0 4.875,-1.29 4.875,-5.175"
               style="fill:#292f3b;fill-opacity:1;fill-rule:nonzero;stroke:none"
               id="path8100"
               inkscape:connector-curvature="0" /></g><g
             id="g8102"
             transform="translate(492.8539,269.0779)"><path
               d="m 0,0 c -0.255,-0.046 -0.72,-0.046 -0.975,0 l -0.12,1.305 h -2.279 v -7.951 h 0.015 l 1.125,-0.149 c 0.045,-0.24 0.045,-0.54 0,-0.825 H -5.76 c -0.045,0.285 -0.045,0.585 0,0.825 l 1.111,0.149 V 1.305 H -6.93 L -7.049,0 C -7.305,-0.046 -7.77,-0.046 -8.024,0 V 2.43 H 0 Z"
               style="fill:#292f3b;fill-opacity:1;fill-rule:nonzero;stroke:none"
               id="path8104"
               inkscape:connector-curvature="0" /></g><g
             id="g8106"
             transform="translate(500.5345,265.0427)"><path
               d="M 0,0 V -2.61 L 1.125,-2.76 C 1.17,-3 1.17,-3.3 1.125,-3.585 H -2.4 C -2.445,-3.3 -2.445,-3 -2.4,-2.76 l 1.125,0.15 V 0 L -4.215,5.489 -5.4,5.64 c -0.045,0.24 -0.045,0.54 0,0.825 h 3.525 C -1.83,6.18 -1.83,5.88 -1.875,5.64 L -2.82,5.505 -0.69,1.29 -0.63,0.54 h 0.029 L -0.54,1.29 1.59,5.489 0.585,5.64 C 0.54,5.88 0.54,6.18 0.585,6.465 H 4.109 C 4.154,6.18 4.154,5.88 4.109,5.64 L 2.925,5.505 Z"
               style="fill:#292f3b;fill-opacity:1;fill-rule:nonzero;stroke:none"
               id="path8108"
               inkscape:connector-curvature="0" /></g><g
             id="g8110"
             transform="translate(515.9545,261.4577)"><path
               d="m 0,0 h -1.98 l -4.245,5.31 3.45,3.794 -0.915,0.121 c -0.045,0.24 -0.045,0.54 0,0.825 h 3.45 c 0.045,-0.285 0.045,-0.585 0,-0.825 L -1.365,9.074 -4.62,5.399 -4.92,5.325 V 5.295 L -4.62,5.22 -1.125,0.96 0,0.825 C 0.045,0.585 0.045,0.285 0,0 m -5.55,0.825 c 0.045,-0.24 0.045,-0.54 0,-0.825 h -3.525 c -0.045,0.285 -0.045,0.585 0,0.825 l 1.125,0.15 v 8.099 l -1.125,0.151 c -0.045,0.24 -0.045,0.54 0,0.825 h 3.525 c 0.045,-0.285 0.045,-0.585 0,-0.825 L -6.675,9.074 V 0.975 Z"
               style="fill:#292f3b;fill-opacity:1;fill-rule:nonzero;stroke:none"
               id="path8112"
               inkscape:connector-curvature="0" /></g><g
             id="g8114"
             transform="translate(521.6097,272.5573)"><path
               d="m 0,0 -0.345,0.63 2.85,1.86 0.54,-0.96 z m 4.8,-6.075 c 0,2.85 -1.68,4.05 -3.526,4.05 -1.844,0 -3.524,-1.2 -3.524,-4.05 0,-2.85 1.68,-4.05 3.524,-4.05 1.846,0 3.526,1.2 3.526,4.05 m 1.349,0 c 0,-3.885 -2.504,-5.175 -4.875,-5.175 -2.369,0 -4.874,1.29 -4.874,5.175 0,3.885 2.505,5.175 4.874,5.175 2.371,0 4.875,-1.29 4.875,-5.175"
               style="fill:#292f3b;fill-opacity:1;fill-rule:nonzero;stroke:none"
               id="path8116"
               inkscape:connector-curvature="0" /></g><g
             id="g8118"
             transform="translate(545.0687,270.6823)"><path
               d="M 0,0 -1.079,-0.15 -3.81,-9.225 h -1.514 l -2.115,8.175 -0.06,0.6 h -0.03 l -0.06,-0.6 -2.115,-8.175 h -1.515 l -2.73,9.075 -1.08,0.15 c -0.045,0.24 -0.045,0.54 0,0.825 h 3.525 c 0.045,-0.285 0.045,-0.585 0,-0.825 l -1.095,-0.15 2.07,-7.35 0.06,-0.6 h 0.03 l 0.06,0.6 2.085,8.175 h 1.605 l 2.04,-8.175 0.059,-0.6 h 0.03 l 0.061,0.6 2.069,7.365 L -3.494,0 c -0.045,0.24 -0.045,0.54 0,0.825 H 0 C 0.045,0.54 0.045,0.24 0,0"
               style="fill:#292f3b;fill-opacity:1;fill-rule:nonzero;stroke:none"
               id="path8120"
               inkscape:connector-curvature="0" /></g><g
             id="g8122"
             transform="translate(565.9789,261.4577)"><path
               d="m 0,0 h -3.525 c -0.045,0.285 -0.045,0.585 0,0.825 l 1.095,0.15 -1.005,7.349 -0.044,0.601 H -3.51 L -3.585,8.324 -6.225,0.45 h -1.5 l -2.639,7.874 -0.075,0.601 h -0.031 l -0.045,-0.601 -1.005,-7.349 1.095,-0.15 c 0.045,-0.24 0.045,-0.54 0,-0.825 h -3.524 c -0.045,0.285 -0.045,0.585 0,0.825 l 1.095,0.15 1.32,8.115 -0.976,0.135 c -0.045,0.24 -0.045,0.54 0,0.825 h 2.821 l 2.639,-8.025 0.06,-0.6 h 0.03 l 0.061,0.6 2.639,8.025 h 2.835 c 0.045,-0.285 0.045,-0.585 0,-0.825 L -2.4,9.09 -1.08,0.975 0,0.825 C 0.045,0.585 0.045,0.285 0,0"
               style="fill:#292f3b;fill-opacity:1;fill-rule:nonzero;stroke:none"
               id="path8124"
               inkscape:connector-curvature="0" /></g><g
             id="g8126"
             transform="translate(575.639,263.8874)"><path
               d="m 0,0 v -2.43 h -7.2 c -0.045,0.285 -0.045,0.585 0,0.826 l 1.125,0.149 v 8.1 L -7.2,6.795 c -0.045,0.24 -0.045,0.54 0,0.825 h 6.9 V 5.19 c -0.256,-0.045 -0.721,-0.045 -0.975,0 L -1.396,6.495 H -4.8 V 3.18 l 3.525,0.091 V 2.146 L -4.8,2.235 v -3.54 h 3.705 L -0.976,0 C -0.72,0.045 -0.255,0.045 0,0"
               style="fill:#292f3b;fill-opacity:1;fill-rule:nonzero;stroke:none"
               id="path8128"
               inkscape:connector-curvature="0" /></g><g
             id="g8130"
             transform="translate(578.9984,271.282)"><path
               d="M 0,0 C 0,0.33 0.63,0.96 0.96,0.96 1.29,0.96 1.92,0.33 1.92,0 1.92,-0.33 1.29,-0.96 0.96,-0.96 0.63,-0.96 0,-0.33 0,0 m 2.745,-9.824 h -3.45 c -0.045,0.285 -0.045,0.585 0,0.825 L 0.42,-8.85 v 5.505 L -0.705,-3.3 c -0.045,0.285 -0.045,0.585 0,0.825 l 2.101,0.151 C 1.561,-2.925 1.62,-3.435 1.62,-3.975 V -8.85 l 1.125,-0.149 c 0.045,-0.24 0.045,-0.54 0,-0.825"
               style="fill:#292f3b;fill-opacity:1;fill-rule:nonzero;stroke:none"
               id="path8132"
               inkscape:connector-curvature="0" /></g><g
             id="g8134"
             transform="translate(591.2533,263.8874)"><path
               d="m 0,0 v -2.43 h -7.05 c -0.045,0.285 -0.045,0.585 0,0.826 l 1.125,0.149 v 8.1 l -1.125,0.15 c -0.045,0.24 -0.045,0.54 0,0.825 h 3.526 c 0.045,-0.285 0.045,-0.585 0,-0.825 l -1.125,-0.15 v -7.95 h 3.554 L -0.975,0 C -0.72,0.045 -0.255,0.045 0,0"
               style="fill:#292f3b;fill-opacity:1;fill-rule:nonzero;stroke:none"
               id="path8136"
               inkscape:connector-curvature="0" /></g><g
             id="g8138"
             transform="translate(600.8832,266.9177)"><path
               d="m 0,0 c 0.51,-0.045 1.035,-0.061 1.604,-0.061 1.246,0 2.071,0.526 2.071,1.8 C 3.675,3.09 2.85,3.614 1.604,3.614 1.035,3.614 0.51,3.6 0,3.555 Z m 0,-1.125 v -3.36 l 1.575,-0.15 c 0.045,-0.24 0.045,-0.54 0,-0.825 h -3.974 c -0.046,0.285 -0.046,0.585 0,0.825 l 1.124,0.15 v 8.099 l -1.124,0.151 c -0.046,0.24 -0.046,0.54 0,0.825 h 1.124 c 0.915,0 1.815,0.149 2.879,0.149 1.981,0 3.42,-0.974 3.42,-3 0,-1.949 -1.439,-2.925 -3.42,-2.925 -0.569,0 -1.094,0.016 -1.604,0.061"
               style="fill:#292f3b;fill-opacity:1;fill-rule:nonzero;stroke:none"
               id="path8140"
               inkscape:connector-curvature="0" /></g><g
             id="g8142"
             transform="translate(623.2172,270.6823)"><path
               d="M 0,0 -1.079,-0.15 -3.81,-9.225 h -1.514 l -2.115,8.175 -0.06,0.6 h -0.03 l -0.06,-0.6 -2.115,-8.175 h -1.515 l -2.73,9.075 -1.08,0.15 c -0.045,0.24 -0.045,0.54 0,0.825 h 3.525 c 0.045,-0.285 0.045,-0.585 0,-0.825 l -1.095,-0.15 2.07,-7.35 0.06,-0.6 h 0.03 l 0.06,0.6 2.085,8.175 h 1.605 l 2.04,-8.175 0.059,-0.6 h 0.03 l 0.061,0.6 2.069,7.365 L -3.494,0 c -0.045,0.24 -0.045,0.54 0,0.825 H 0 C 0.045,0.54 0.045,0.24 0,0"
               style="fill:#292f3b;fill-opacity:1;fill-rule:nonzero;stroke:none"
               id="path8144"
               inkscape:connector-curvature="0" /></g><g
             id="g8146"
             transform="translate(186.7201,290.8127)"><path
               d="M 0,0 C 0.097,0.018 0.216,0.018 0.33,0 V -1.409 C 0.216,-1.428 0.097,-1.428 0,-1.409 L -0.06,-0.96 H -1.499 V -3.238 H -0.06 L 0,-2.789 c 0.097,0.018 0.216,0.018 0.33,0 V -4.198 C 0.216,-4.216 0.097,-4.216 0,-4.198 l -0.06,0.45 h -3.238 l -0.059,-0.45 c -0.097,-0.018 -0.217,-0.018 -0.331,0 v 1.409 c 0.114,0.018 0.234,0.018 0.331,0 l 0.059,-0.449 h 1.35 v 2.278 h -1.35 l -0.059,-0.449 c -0.097,-0.019 -0.217,-0.019 -0.331,0 V 0 c 0.114,0.018 0.234,0.018 0.331,0 l 0.059,-0.45 h 3.238 z"
               style="fill:#292f3b;fill-opacity:1;fill-rule:nonzero;stroke:none"
               id="path8148"
               inkscape:connector-curvature="0" /></g><g
             id="g8150"
             transform="translate(185.2816,294.4494)"><path
               d="M 0,0 -1.56,-0.594 -1.8,-0.618 V -0.63 L -1.56,-0.653 0,-1.26 Z M 1.769,1.511 V 0.102 C 1.654,0.084 1.535,0.084 1.438,0.102 L 1.385,0.527 0.449,0.168 v -1.602 l 0.93,-0.365 0.059,0.438 c 0.097,0.017 0.216,0.017 0.331,0 v -1.41 c -0.115,-0.017 -0.234,-0.017 -0.331,0 l -0.059,0.438 -3.256,1.325 -0.042,-0.359 c -0.097,-0.019 -0.217,-0.019 -0.33,0 v 1.019 l 3.634,1.44 0.053,0.419 c 0.097,0.018 0.216,0.018 0.331,0"
               style="fill:#292f3b;fill-opacity:1;fill-rule:nonzero;stroke:none"
               id="path8152"
               inkscape:connector-curvature="0" /></g><g
             id="g8154"
             transform="translate(186.0785,299.6447)"><path
               d="m 0,0 h 0.972 v -2.818 c -0.115,-0.018 -0.234,-0.018 -0.33,0 l -0.06,0.45 h -3.238 l -0.06,-0.45 c -0.097,-0.018 -0.217,-0.018 -0.33,0 v 1.409 c 0.113,0.018 0.233,0.018 0.33,0 l 0.06,-0.449 h 3.177 v 1.421 L 0,-0.39 C -0.018,-0.287 -0.018,-0.102 0,0"
               style="fill:#292f3b;fill-opacity:1;fill-rule:nonzero;stroke:none"
               id="path8156"
               inkscape:connector-curvature="0" /></g><path
             d="m 185.131,302.585 h 0.45 v -1.858 h -0.45 z"
             style="fill:#292f3b;fill-opacity:1;fill-rule:nonzero;stroke:none"
             id="path8158"
             inkscape:connector-curvature="0" /><g
             id="g8160"
             transform="translate(185.101,306.1555)"><path
               d="m 0,0 c -1.139,0 -1.679,-0.312 -1.679,-0.87 0,-0.558 0.54,-0.869 1.679,-0.869 1.02,0 1.56,0.311 1.56,0.869 C 1.56,-0.312 1.02,0 0,0 m 0,0.54 c 1.434,0 2.009,-0.643 2.009,-1.41 0,-0.768 -0.575,-1.409 -2.009,-1.409 -1.553,0 -2.129,0.641 -2.129,1.409 0,0.767 0.576,1.41 2.129,1.41"
               style="fill:#292f3b;fill-opacity:1;fill-rule:nonzero;stroke:none"
               id="path8162"
               inkscape:connector-curvature="0" /></g><g
             id="g8164"
             transform="translate(185.8148,310.2053)"><path
               d="m 0,0 c -0.582,0 -0.857,-0.348 -0.857,-0.756 0,-0.264 0.107,-0.636 0.498,-0.863 0.844,0.03 1.205,0.336 1.205,0.839 C 0.846,-0.312 0.6,0 0,0 m 0,0.539 c 0.882,0 1.295,-0.611 1.295,-1.319 0,-0.768 -0.455,-1.379 -1.769,-1.379 -1.553,0 -2.369,0.941 -2.369,2.369 h 0.45 c 0,-1.031 0.588,-1.674 1.488,-1.823 -0.336,0.294 -0.42,0.683 -0.42,0.983 0,0.527 0.324,1.169 1.325,1.169"
               style="fill:#292f3b;fill-opacity:1;fill-rule:nonzero;stroke:none"
               id="path8166"
               inkscape:connector-curvature="0" /></g><g
             id="g8168"
             transform="translate(186.0785,314.4651)"><path
               d="m 0,0 h 0.972 v -2.458 h -0.3 c -1.415,1.415 -2.093,1.858 -2.729,1.858 -0.42,0 -0.599,-0.245 -0.599,-0.725 0,-0.197 0.042,-0.384 0.101,-0.552 l 0.624,-0.06 c 0.018,-0.101 0.018,-0.288 0,-0.389 h -0.911 c -0.144,0.281 -0.264,0.569 -0.264,1.061 0,0.786 0.306,1.205 1.049,1.205 0.702,0 1.379,-0.443 2.519,-1.601 L 0.51,-1.78 h 0.011 v 1.343 L 0,-0.39 C -0.018,-0.287 -0.018,-0.102 0,0"
               style="fill:#292f3b;fill-opacity:1;fill-rule:nonzero;stroke:none"
               id="path8170"
               inkscape:connector-curvature="0" /></g></g></g></g></g></svg>
